<svg width="147" height="32" viewBox="0 0 147 32" fill="none" xmlns="http://www.w3.org/2000/svg">
<g filter="url(#filter0_b_1_3413)">
<rect width="147" height="32" rx="16" fill="#E6E6E6" fill-opacity="0.5"/>
<path d="M22.3733 15.16L21.4667 14.1067C21.2933 13.9067 21.1533 13.5333 21.1533 13.2667V12.1333C21.1533 11.4267 20.5733 10.8467 19.8667 10.8467H18.7333C18.4733 10.8467 18.0933 10.7067 17.8933 10.5333L16.84 9.62667C16.38 9.23333 15.6267 9.23333 15.16 9.62667L14.1133 10.54C13.9133 10.7067 13.5333 10.8467 13.2733 10.8467H12.12C11.4133 10.8467 10.8333 11.4267 10.8333 12.1333V13.2733C10.8333 13.5333 10.6933 13.9067 10.5267 14.1067L9.62667 15.1667C9.24 15.6267 9.24 16.3733 9.62667 16.8333L10.5267 17.8933C10.6933 18.0933 10.8333 18.4667 10.8333 18.7267V19.8667C10.8333 20.5733 11.4133 21.1533 12.12 21.1533H13.2733C13.5333 21.1533 13.9133 21.2933 14.1133 21.4667L15.1667 22.3733C15.6267 22.7667 16.38 22.7667 16.8467 22.3733L17.9 21.4667C18.1 21.2933 18.4733 21.1533 18.74 21.1533H19.8733C20.58 21.1533 21.16 20.5733 21.16 19.8667V18.7333C21.16 18.4733 21.3 18.0933 21.4733 17.8933L22.38 16.84C22.7667 16.38 22.7667 15.62 22.3733 15.16ZM18.7733 14.74L15.5533 17.96C15.46 18.0533 15.3333 18.1067 15.2 18.1067C15.0667 18.1067 14.94 18.0533 14.8467 17.96L13.2333 16.3467C13.04 16.1533 13.04 15.8333 13.2333 15.64C13.4267 15.4467 13.7467 15.4467 13.94 15.64L15.2 16.9L18.0667 14.0333C18.26 13.84 18.58 13.84 18.7733 14.0333C18.9667 14.2267 18.9667 14.5467 18.7733 14.74Z" fill="#427CF1"/>
<path d="M35.75 20.5H33.0568V11.7727H35.8693C36.7159 11.7727 37.4403 11.9474 38.0426 12.2969C38.6449 12.6435 39.1065 13.142 39.4276 13.7926C39.7486 14.4403 39.9091 15.2159 39.9091 16.1193C39.9091 17.0284 39.7472 17.8111 39.4233 18.4673C39.0994 19.1207 38.6278 19.6236 38.0085 19.9759C37.3892 20.3253 36.6364 20.5 35.75 20.5ZM34.1136 19.5625H35.6818C36.4034 19.5625 37.0014 19.4233 37.4759 19.1449C37.9503 18.8665 38.304 18.4702 38.5369 17.956C38.7699 17.4418 38.8864 16.8295 38.8864 16.1193C38.8864 15.4148 38.7713 14.8082 38.5412 14.2997C38.3111 13.7884 37.9673 13.3963 37.5099 13.1236C37.0526 12.848 36.483 12.7102 35.8011 12.7102H34.1136V19.5625ZM44.2898 20.6364C43.6591 20.6364 43.1151 20.4972 42.6577 20.2188C42.2031 19.9375 41.8523 19.5455 41.6051 19.0426C41.3608 18.5369 41.2386 17.9489 41.2386 17.2784C41.2386 16.608 41.3608 16.017 41.6051 15.5057C41.8523 14.9915 42.196 14.5909 42.6364 14.304C43.0795 14.0142 43.5966 13.8693 44.1875 13.8693C44.5284 13.8693 44.8651 13.9261 45.1974 14.0398C45.5298 14.1534 45.8324 14.3381 46.1051 14.5938C46.3778 14.8466 46.5952 15.1818 46.7571 15.5994C46.919 16.017 47 16.5312 47 17.142V17.5682H41.9545V16.6989H45.9773C45.9773 16.3295 45.9034 16 45.7557 15.7102C45.6108 15.4205 45.4034 15.1918 45.1335 15.0241C44.8665 14.8565 44.5511 14.7727 44.1875 14.7727C43.7869 14.7727 43.4403 14.8722 43.1477 15.071C42.858 15.267 42.6349 15.5227 42.4787 15.8381C42.3224 16.1534 42.2443 16.4915 42.2443 16.8523V17.4318C42.2443 17.9261 42.3295 18.3452 42.5 18.6889C42.6733 19.0298 42.9134 19.2898 43.2202 19.4688C43.527 19.6449 43.8835 19.733 44.2898 19.733C44.554 19.733 44.7926 19.696 45.0057 19.6222C45.2216 19.5455 45.4077 19.4318 45.5639 19.2812C45.7202 19.1278 45.8409 18.9375 45.9261 18.7102L46.8977 18.983C46.7955 19.3125 46.6236 19.6023 46.3821 19.8523C46.1406 20.0994 45.8423 20.2926 45.4872 20.4318C45.1321 20.5682 44.733 20.6364 44.2898 20.6364ZM50.456 20.6534C50.0412 20.6534 49.6648 20.5753 49.3267 20.419C48.9886 20.2599 48.7202 20.0312 48.5213 19.733C48.3224 19.4318 48.223 19.0682 48.223 18.642C48.223 18.267 48.2969 17.9631 48.4446 17.7301C48.5923 17.4943 48.7898 17.3097 49.0369 17.1761C49.2841 17.0426 49.5568 16.9432 49.8551 16.8778C50.1563 16.8097 50.4588 16.7557 50.7628 16.7159C51.1605 16.6648 51.483 16.6264 51.7301 16.6009C51.9801 16.5724 52.1619 16.5256 52.2756 16.4602C52.392 16.3949 52.4503 16.2812 52.4503 16.1193V16.0852C52.4503 15.6648 52.3352 15.3381 52.1051 15.1051C51.8778 14.8722 51.5327 14.7557 51.0696 14.7557C50.5895 14.7557 50.2131 14.8608 49.9403 15.071C49.6676 15.2812 49.4759 15.5057 49.3651 15.7443L48.4105 15.4034C48.581 15.0057 48.8082 14.696 49.0923 14.4744C49.3793 14.25 49.6918 14.0937 50.0298 14.0057C50.3707 13.9148 50.706 13.8693 51.0355 13.8693C51.2457 13.8693 51.4872 13.8949 51.7599 13.946C52.0355 13.9943 52.3011 14.0952 52.5568 14.2486C52.8153 14.402 53.0298 14.6335 53.2003 14.9432C53.3707 15.2528 53.456 15.6676 53.456 16.1875V20.5H52.4503V19.6136H52.3991C52.331 19.7557 52.2173 19.9077 52.0582 20.0696C51.8991 20.2315 51.6875 20.3693 51.4233 20.483C51.1591 20.5966 50.8366 20.6534 50.456 20.6534ZM50.6094 19.75C51.0071 19.75 51.3423 19.6719 51.6151 19.5156C51.8906 19.3594 52.098 19.1577 52.2372 18.9105C52.3793 18.6634 52.4503 18.4034 52.4503 18.1307V17.2102C52.4077 17.2614 52.3139 17.3082 52.169 17.3509C52.027 17.3906 51.8622 17.4261 51.6747 17.4574C51.4901 17.4858 51.3097 17.5114 51.1335 17.5341C50.9602 17.554 50.8196 17.571 50.7116 17.5852C50.4503 17.6193 50.206 17.6747 49.9787 17.7514C49.7543 17.8253 49.5724 17.9375 49.4332 18.0881C49.2969 18.2358 49.2287 18.4375 49.2287 18.6932C49.2287 19.0426 49.358 19.3068 49.6165 19.4858C49.8778 19.6619 50.2088 19.75 50.6094 19.75ZM56.2972 11.7727V20.5H55.2915V11.7727H56.2972ZM60.8835 20.6364C60.2528 20.6364 59.7088 20.4972 59.2514 20.2188C58.7969 19.9375 58.446 19.5455 58.1989 19.0426C57.9545 18.5369 57.8324 17.9489 57.8324 17.2784C57.8324 16.608 57.9545 16.017 58.1989 15.5057C58.446 14.9915 58.7898 14.5909 59.2301 14.304C59.6733 14.0142 60.1903 13.8693 60.7812 13.8693C61.1222 13.8693 61.4588 13.9261 61.7912 14.0398C62.1236 14.1534 62.4261 14.3381 62.6989 14.5938C62.9716 14.8466 63.1889 15.1818 63.3509 15.5994C63.5128 16.017 63.5938 16.5312 63.5938 17.142V17.5682H58.5483V16.6989H62.571C62.571 16.3295 62.4972 16 62.3494 15.7102C62.2045 15.4205 61.9972 15.1918 61.7273 15.0241C61.4602 14.8565 61.1449 14.7727 60.7812 14.7727C60.3807 14.7727 60.0341 14.8722 59.7415 15.071C59.4517 15.267 59.2287 15.5227 59.0724 15.8381C58.9162 16.1534 58.8381 16.4915 58.8381 16.8523V17.4318C58.8381 17.9261 58.9233 18.3452 59.0938 18.6889C59.267 19.0298 59.5071 19.2898 59.8139 19.4688C60.1207 19.6449 60.4773 19.733 60.8835 19.733C61.1477 19.733 61.3864 19.696 61.5994 19.6222C61.8153 19.5455 62.0014 19.4318 62.1577 19.2812C62.3139 19.1278 62.4347 18.9375 62.5199 18.7102L63.4915 18.983C63.3892 19.3125 63.2173 19.6023 62.9759 19.8523C62.7344 20.0994 62.4361 20.2926 62.081 20.4318C61.7259 20.5682 61.3267 20.6364 60.8835 20.6364ZM65.1236 20.5V13.9545H66.0952V14.9432H66.1634C66.2827 14.6193 66.4986 14.3565 66.8111 14.1548C67.1236 13.9531 67.4759 13.8523 67.8679 13.8523C67.9418 13.8523 68.0341 13.8537 68.1449 13.8565C68.2557 13.8594 68.3395 13.8636 68.3963 13.8693V14.892C68.3622 14.8835 68.2841 14.8707 68.1619 14.8537C68.0426 14.8338 67.9162 14.8239 67.7827 14.8239C67.4645 14.8239 67.1804 14.8906 66.9304 15.0241C66.6832 15.1548 66.4872 15.3366 66.3423 15.5696C66.2003 15.7997 66.1293 16.0625 66.1293 16.358V20.5H65.1236ZM72.6225 12.7102V11.7727H79.168V12.7102H76.4237V20.5H75.3668V12.7102H72.6225ZM82.4577 20.6364C81.8271 20.6364 81.283 20.4972 80.8256 20.2188C80.3711 19.9375 80.0202 19.5455 79.7731 19.0426C79.5288 18.5369 79.4066 17.9489 79.4066 17.2784C79.4066 16.608 79.5288 16.017 79.7731 15.5057C80.0202 14.9915 80.364 14.5909 80.8043 14.304C81.2475 14.0142 81.7646 13.8693 82.3555 13.8693C82.6964 13.8693 83.033 13.9261 83.3654 14.0398C83.6978 14.1534 84.0004 14.3381 84.2731 14.5938C84.5458 14.8466 84.7631 15.1818 84.9251 15.5994C85.087 16.017 85.168 16.5312 85.168 17.142V17.5682H80.1225V16.6989H84.1452C84.1452 16.3295 84.0714 16 83.9237 15.7102C83.7788 15.4205 83.5714 15.1918 83.3015 15.0241C83.0344 14.8565 82.7191 14.7727 82.3555 14.7727C81.9549 14.7727 81.6083 14.8722 81.3157 15.071C81.0259 15.267 80.8029 15.5227 80.6467 15.8381C80.4904 16.1534 80.4123 16.4915 80.4123 16.8523V17.4318C80.4123 17.9261 80.4975 18.3452 80.668 18.6889C80.8413 19.0298 81.0813 19.2898 81.3881 19.4688C81.695 19.6449 82.0515 19.733 82.4577 19.733C82.7219 19.733 82.9606 19.696 83.1737 19.6222C83.3896 19.5455 83.5756 19.4318 83.7319 19.2812C83.8881 19.1278 84.0089 18.9375 84.0941 18.7102L85.0657 18.983C84.9634 19.3125 84.7915 19.6023 84.5501 19.8523C84.3086 20.0994 84.0103 20.2926 83.6552 20.4318C83.3001 20.5682 82.9009 20.6364 82.4577 20.6364ZM86.6978 20.5V13.9545H87.6694V14.9432H87.7376C87.8569 14.6193 88.0728 14.3565 88.3853 14.1548C88.6978 13.9531 89.0501 13.8523 89.4421 13.8523C89.516 13.8523 89.6083 13.8537 89.7191 13.8565C89.8299 13.8594 89.9137 13.8636 89.9705 13.8693V14.892C89.9364 14.8835 89.8583 14.8707 89.7362 14.8537C89.6168 14.8338 89.4904 14.8239 89.3569 14.8239C89.0387 14.8239 88.7546 14.8906 88.5046 15.0241C88.2575 15.1548 88.0614 15.3366 87.9165 15.5696C87.7745 15.7997 87.7035 16.0625 87.7035 16.358V20.5H86.6978ZM96.7141 13.9545L94.2937 20.5H93.271L90.8505 13.9545H91.9414L93.7482 19.1705H93.8164L95.6232 13.9545H96.7141ZM100.551 20.6364C99.9208 20.6364 99.3768 20.4972 98.9194 20.2188C98.4648 19.9375 98.114 19.5455 97.8668 19.0426C97.6225 18.5369 97.5004 17.9489 97.5004 17.2784C97.5004 16.608 97.6225 16.017 97.8668 15.5057C98.114 14.9915 98.4577 14.5909 98.8981 14.304C99.3413 14.0142 99.8583 13.8693 100.449 13.8693C100.79 13.8693 101.127 13.9261 101.459 14.0398C101.792 14.1534 102.094 14.3381 102.367 14.5938C102.64 14.8466 102.857 15.1818 103.019 15.5994C103.181 16.017 103.262 16.5312 103.262 17.142V17.5682H98.2163V16.6989H102.239C102.239 16.3295 102.165 16 102.017 15.7102C101.873 15.4205 101.665 15.1918 101.395 15.0241C101.128 14.8565 100.813 14.7727 100.449 14.7727C100.049 14.7727 99.7021 14.8722 99.4094 15.071C99.1197 15.267 98.8967 15.5227 98.7404 15.8381C98.5842 16.1534 98.506 16.4915 98.506 16.8523V17.4318C98.506 17.9261 98.5913 18.3452 98.7617 18.6889C98.935 19.0298 99.1751 19.2898 99.4819 19.4688C99.7887 19.6449 100.145 19.733 100.551 19.733C100.816 19.733 101.054 19.696 101.267 19.6222C101.483 19.5455 101.669 19.4318 101.826 19.2812C101.982 19.1278 102.103 18.9375 102.188 18.7102L103.159 18.983C103.057 19.3125 102.885 19.6023 102.644 19.8523C102.402 20.0994 102.104 20.2926 101.749 20.4318C101.394 20.5682 100.995 20.6364 100.551 20.6364ZM104.792 20.5V13.9545H105.763V14.9432H105.831C105.951 14.6193 106.167 14.3565 106.479 14.1548C106.792 13.9531 107.144 13.8523 107.536 13.8523C107.61 13.8523 107.702 13.8537 107.813 13.8565C107.924 13.8594 108.007 13.8636 108.064 13.8693V14.892C108.03 14.8835 107.952 14.8707 107.83 14.8537C107.711 14.8338 107.584 14.8239 107.451 14.8239C107.132 14.8239 106.848 14.8906 106.598 15.0241C106.351 15.1548 106.155 15.3366 106.01 15.5696C105.868 15.7997 105.797 16.0625 105.797 16.358V20.5H104.792ZM112.581 13.9545V14.8068H109.053V13.9545H112.581ZM110.11 20.5V13.0511C110.11 12.6761 110.198 12.3636 110.374 12.1136C110.55 11.8636 110.779 11.6761 111.06 11.5511C111.341 11.4261 111.638 11.3636 111.951 11.3636C112.198 11.3636 112.4 11.3835 112.556 11.4233C112.712 11.4631 112.828 11.5 112.905 11.5341L112.615 12.4034C112.564 12.3864 112.493 12.3651 112.402 12.3395C112.314 12.3139 112.198 12.3011 112.053 12.3011C111.721 12.3011 111.48 12.3849 111.333 12.5526C111.188 12.7202 111.115 12.9659 111.115 13.2898V20.5H110.11ZM113.991 20.5V13.9545H114.996V20.5H113.991ZM114.502 12.8636C114.306 12.8636 114.137 12.7969 113.995 12.6634C113.856 12.5298 113.786 12.3693 113.786 12.1818C113.786 11.9943 113.856 11.8338 113.995 11.7003C114.137 11.5668 114.306 11.5 114.502 11.5C114.698 11.5 114.866 11.5668 115.005 11.7003C115.147 11.8338 115.218 11.9943 115.218 12.1818C115.218 12.3693 115.147 12.5298 115.005 12.6634C114.866 12.7969 114.698 12.8636 114.502 12.8636ZM117.776 18.1136L117.759 16.8693H117.963L120.827 13.9545H122.071L119.02 17.0398H118.935L117.776 18.1136ZM116.838 20.5V11.7727H117.844V20.5H116.838ZM120.998 20.5L118.441 17.2614L119.157 16.5625L122.276 20.5H120.998ZM125.292 20.6534C124.877 20.6534 124.501 20.5753 124.163 20.419C123.825 20.2599 123.556 20.0312 123.357 19.733C123.158 19.4318 123.059 19.0682 123.059 18.642C123.059 18.267 123.133 17.9631 123.281 17.7301C123.428 17.4943 123.626 17.3097 123.873 17.1761C124.12 17.0426 124.393 16.9432 124.691 16.8778C124.992 16.8097 125.295 16.7557 125.599 16.7159C125.996 16.6648 126.319 16.6264 126.566 16.6009C126.816 16.5724 126.998 16.5256 127.112 16.4602C127.228 16.3949 127.286 16.2812 127.286 16.1193V16.0852C127.286 15.6648 127.171 15.3381 126.941 15.1051C126.714 14.8722 126.369 14.7557 125.906 14.7557C125.425 14.7557 125.049 14.8608 124.776 15.071C124.504 15.2812 124.312 15.5057 124.201 15.7443L123.246 15.4034C123.417 15.0057 123.644 14.696 123.928 14.4744C124.215 14.25 124.528 14.0937 124.866 14.0057C125.207 13.9148 125.542 13.8693 125.871 13.8693C126.082 13.8693 126.323 13.8949 126.596 13.946C126.871 13.9943 127.137 14.0952 127.393 14.2486C127.651 14.402 127.866 14.6335 128.036 14.9432C128.207 15.2528 128.292 15.6676 128.292 16.1875V20.5H127.286V19.6136H127.235C127.167 19.7557 127.053 19.9077 126.894 20.0696C126.735 20.2315 126.523 20.3693 126.259 20.483C125.995 20.5966 125.673 20.6534 125.292 20.6534ZM125.445 19.75C125.843 19.75 126.178 19.6719 126.451 19.5156C126.727 19.3594 126.934 19.1577 127.073 18.9105C127.215 18.6634 127.286 18.4034 127.286 18.1307V17.2102C127.244 17.2614 127.15 17.3082 127.005 17.3509C126.863 17.3906 126.698 17.4261 126.511 17.4574C126.326 17.4858 126.146 17.5114 125.969 17.5341C125.796 17.554 125.656 17.571 125.548 17.5852C125.286 17.6193 125.042 17.6747 124.815 17.7514C124.59 17.8253 124.408 17.9375 124.269 18.0881C124.133 18.2358 124.065 18.4375 124.065 18.6932C124.065 19.0426 124.194 19.3068 124.452 19.4858C124.714 19.6619 125.045 19.75 125.445 19.75ZM134.764 15.4205L133.86 15.6761C133.804 15.5256 133.72 15.3793 133.609 15.2372C133.501 15.0923 133.353 14.973 133.166 14.8793C132.978 14.7855 132.738 14.7386 132.446 14.7386C132.045 14.7386 131.711 14.831 131.444 15.0156C131.18 15.1974 131.048 15.429 131.048 15.7102C131.048 15.9602 131.139 16.1577 131.321 16.3026C131.502 16.4474 131.787 16.5682 132.173 16.6648L133.145 16.9034C133.73 17.0455 134.166 17.2628 134.453 17.5554C134.74 17.8452 134.883 18.2187 134.883 18.6761C134.883 19.0511 134.775 19.3864 134.559 19.6818C134.346 19.9773 134.048 20.2102 133.664 20.3807C133.281 20.5511 132.835 20.6364 132.326 20.6364C131.659 20.6364 131.106 20.4915 130.669 20.2017C130.231 19.9119 129.954 19.4886 129.838 18.9318L130.792 18.6932C130.883 19.0455 131.055 19.3097 131.308 19.4858C131.564 19.6619 131.897 19.75 132.309 19.75C132.778 19.75 133.15 19.6506 133.426 19.4517C133.704 19.25 133.843 19.0085 133.843 18.7273C133.843 18.5 133.764 18.3097 133.605 18.1562C133.446 18 133.201 17.8835 132.872 17.8068L131.781 17.5511C131.181 17.4091 130.741 17.1889 130.46 16.8906C130.181 16.5895 130.042 16.2131 130.042 15.7614C130.042 15.392 130.146 15.0653 130.353 14.7812C130.564 14.4972 130.849 14.2741 131.21 14.1122C131.574 13.9503 131.985 13.8693 132.446 13.8693C133.093 13.8693 133.602 14.0114 133.971 14.2955C134.343 14.5795 134.608 14.9545 134.764 15.4205ZM136.397 20.5V13.9545H137.403V20.5H136.397ZM136.908 12.8636C136.712 12.8636 136.543 12.7969 136.401 12.6634C136.262 12.5298 136.192 12.3693 136.192 12.1818C136.192 11.9943 136.262 11.8338 136.401 11.7003C136.543 11.5668 136.712 11.5 136.908 11.5C137.104 11.5 137.272 11.5668 137.411 11.7003C137.553 11.8338 137.624 11.9943 137.624 12.1818C137.624 12.3693 137.553 12.5298 137.411 12.6634C137.272 12.7969 137.104 12.8636 136.908 12.8636Z" fill="#2F3137" fill-opacity="0.5"/>
</g>
<defs>
<filter id="filter0_b_1_3413" x="-10" y="-10" width="167" height="52" filterUnits="userSpaceOnUse" color-interpolation-filters="sRGB">
<feFlood flood-opacity="0" result="BackgroundImageFix"/>
<feGaussianBlur in="BackgroundImageFix" stdDeviation="5"/>
<feComposite in2="SourceAlpha" operator="in" result="effect1_backgroundBlur_1_3413"/>
<feBlend mode="normal" in="SourceGraphic" in2="effect1_backgroundBlur_1_3413" result="shape"/>
</filter>
</defs>
</svg>
