<svg width="77" height="24" viewBox="0 0 77 24" fill="none" xmlns="http://www.w3.org/2000/svg">
<g filter="url(#filter0_b_1_3419)">
<rect width="77" height="24" rx="12" fill="#3775F1" fill-opacity="0.05"/>
<rect x="0.5" y="0.5" width="76" height="23" rx="11.5" stroke="#3775F1"/>
<path d="M18.669 8.72727V16H17.6605L13.9638 10.6662H13.8963V16H12.799V8.72727H13.8146L17.5149 14.0682H17.5824V8.72727H18.669ZM22.5353 16.1101C21.9979 16.1101 21.5351 15.9953 21.1468 15.7656C20.7609 15.5336 20.4627 15.2081 20.252 14.7891C20.0436 14.3677 19.9395 13.8741 19.9395 13.3082C19.9395 12.7495 20.0436 12.2571 20.252 11.831C20.4627 11.4048 20.7562 11.0722 21.1326 10.8331C21.5114 10.594 21.9541 10.4744 22.4608 10.4744C22.7685 10.4744 23.0668 10.5253 23.3556 10.6271C23.6445 10.7289 23.9037 10.8887 24.1333 11.1065C24.363 11.3243 24.5441 11.6072 24.6767 11.9553C24.8092 12.3009 24.8755 12.7211 24.8755 13.2159V13.5923H20.5396V12.7969H23.835C23.835 12.5175 23.7782 12.2701 23.6646 12.0547C23.551 11.8369 23.3912 11.6652 23.1852 11.5398C22.9816 11.4143 22.7425 11.3516 22.4679 11.3516C22.1696 11.3516 21.9092 11.425 21.6866 11.5717C21.4664 11.7161 21.296 11.9055 21.1752 12.1399C21.0569 12.3719 20.9977 12.6241 20.9977 12.8963V13.5178C20.9977 13.8823 21.0616 14.1925 21.1895 14.4482C21.3197 14.7038 21.5008 14.8991 21.7328 15.0341C21.9648 15.1667 22.2359 15.233 22.546 15.233C22.7472 15.233 22.9307 15.2045 23.0964 15.1477C23.2621 15.0885 23.4054 15.0009 23.5261 14.8849C23.6468 14.7689 23.7392 14.6257 23.8031 14.4553L24.8081 14.6364C24.7276 14.9323 24.5832 15.1915 24.3748 15.4141C24.1689 15.6342 23.9096 15.8059 23.5971 15.929C23.287 16.0497 22.9331 16.1101 22.5353 16.1101ZM28.3406 18.1591C27.9073 18.1591 27.5344 18.1023 27.2219 17.9886C26.9118 17.875 26.6585 17.7247 26.462 17.5376C26.2655 17.3506 26.1187 17.1458 26.0217 16.9233L26.9343 16.5469C26.9982 16.651 27.0835 16.7611 27.19 16.8771C27.2989 16.9955 27.4457 17.0961 27.6303 17.179C27.8174 17.2618 28.0576 17.3033 28.3512 17.3033C28.7537 17.3033 29.0863 17.205 29.3491 17.0085C29.6119 16.8144 29.7433 16.5043 29.7433 16.0781V15.0057H29.6758C29.6119 15.1217 29.5195 15.2507 29.3988 15.3928C29.2804 15.5348 29.1171 15.6579 28.9087 15.7621C28.7004 15.8662 28.4293 15.9183 28.0955 15.9183C27.6647 15.9183 27.2764 15.8177 26.9308 15.6165C26.5875 15.4129 26.3152 15.1134 26.114 14.718C25.9151 14.3203 25.8157 13.8314 25.8157 13.2514C25.8157 12.6714 25.9139 12.1742 26.1104 11.7599C26.3093 11.3456 26.5816 11.0284 26.9272 10.8082C27.2728 10.5857 27.6647 10.4744 28.1026 10.4744C28.4412 10.4744 28.7146 10.5312 28.9229 10.6449C29.1313 10.7562 29.2934 10.8864 29.4094 11.0355C29.5278 11.1847 29.619 11.3161 29.6829 11.4297H29.761V10.5455H30.8015V16.1207C30.8015 16.5895 30.6926 16.9742 30.4748 17.2749C30.257 17.5755 29.9622 17.7981 29.5906 17.9425C29.2212 18.0869 28.8046 18.1591 28.3406 18.1591ZM28.3299 15.0376C28.6353 15.0376 28.8933 14.9666 29.104 14.8246C29.3171 14.6802 29.4781 14.4742 29.587 14.2067C29.6983 13.9368 29.7539 13.6136 29.7539 13.2372C29.7539 12.8703 29.6995 12.5471 29.5906 12.2678C29.4817 11.9884 29.3219 11.7706 29.1112 11.6143C28.9004 11.4557 28.64 11.3764 28.3299 11.3764C28.0103 11.3764 27.744 11.4593 27.5309 11.625C27.3178 11.7884 27.1568 12.0109 27.0479 12.2926C26.9414 12.5743 26.8881 12.8892 26.8881 13.2372C26.8881 13.5947 26.9426 13.9084 27.0515 14.1783C27.1604 14.4482 27.3214 14.6589 27.5344 14.8104C27.7499 14.9619 28.015 15.0376 28.3299 15.0376ZM34.5231 16.1101C34.0117 16.1101 33.5655 15.9929 33.1843 15.7585C32.8031 15.5241 32.5072 15.1963 32.2965 14.7749C32.0858 14.3535 31.9805 13.861 31.9805 13.2976C31.9805 12.7318 32.0858 12.237 32.2965 11.8132C32.5072 11.3894 32.8031 11.0604 33.1843 10.826C33.5655 10.5916 34.0117 10.4744 34.5231 10.4744C35.0344 10.4744 35.4807 10.5916 35.8619 10.826C36.243 11.0604 36.5389 11.3894 36.7496 11.8132C36.9603 12.237 37.0657 12.7318 37.0657 13.2976C37.0657 13.861 36.9603 14.3535 36.7496 14.7749C36.5389 15.1963 36.243 15.5241 35.8619 15.7585C35.4807 15.9929 35.0344 16.1101 34.5231 16.1101ZM34.5266 15.2188C34.8581 15.2188 35.1327 15.1312 35.3505 14.956C35.5683 14.7808 35.7293 14.5476 35.8335 14.2564C35.94 13.9652 35.9933 13.6444 35.9933 13.294C35.9933 12.946 35.94 12.6264 35.8335 12.3352C35.7293 12.0417 35.5683 11.8061 35.3505 11.6286C35.1327 11.451 34.8581 11.3622 34.5266 11.3622C34.1928 11.3622 33.9158 11.451 33.6957 11.6286C33.4779 11.8061 33.3157 12.0417 33.2092 12.3352C33.105 12.6264 33.0529 12.946 33.0529 13.294C33.0529 13.6444 33.105 13.9652 33.2092 14.2564C33.3157 14.5476 33.4779 14.7808 33.6957 14.956C33.9158 15.1312 34.1928 15.2188 34.5266 15.2188ZM40.7971 10.5455V11.3977H37.8176V10.5455H40.7971ZM38.6167 9.23864H39.6784V14.3984C39.6784 14.6044 39.7092 14.7595 39.7708 14.8636C39.8323 14.9654 39.9116 15.0353 40.0087 15.0732C40.1081 15.1087 40.2158 15.1264 40.3319 15.1264C40.4171 15.1264 40.4917 15.1205 40.5556 15.1087C40.6195 15.0968 40.6692 15.0874 40.7047 15.0803L40.8965 15.9574C40.8349 15.9811 40.7473 16.0047 40.6337 16.0284C40.5201 16.0545 40.378 16.0687 40.2076 16.071C39.9282 16.0758 39.6678 16.026 39.4263 15.9219C39.1848 15.8177 38.9895 15.6567 38.8404 15.4389C38.6912 15.2211 38.6167 14.9477 38.6167 14.6186V9.23864ZM41.9716 16V10.5455H43.0334V16H41.9716ZM42.5078 9.70384C42.3232 9.70384 42.1645 9.64228 42.032 9.51918C41.9018 9.3937 41.8366 9.24455 41.8366 9.07173C41.8366 8.89654 41.9018 8.7474 42.032 8.62429C42.1645 8.49882 42.3232 8.43608 42.5078 8.43608C42.6925 8.43608 42.8499 8.49882 42.9801 8.62429C43.1127 8.7474 43.179 8.89654 43.179 9.07173C43.179 9.24455 43.1127 9.3937 42.9801 9.51918C42.8499 9.64228 42.6925 9.70384 42.5078 9.70384ZM46.0492 16.1207C45.7035 16.1207 45.391 16.0568 45.1117 15.929C44.8323 15.7988 44.611 15.6106 44.4476 15.3643C44.2866 15.1181 44.2061 14.8163 44.2061 14.4588C44.2061 14.151 44.2653 13.8977 44.3837 13.6989C44.5021 13.5 44.6619 13.3426 44.8631 13.2266C45.0643 13.1106 45.2892 13.023 45.5378 12.9638C45.7864 12.9046 46.0397 12.8596 46.2978 12.8288C46.6245 12.791 46.8896 12.7602 47.0932 12.7365C47.2968 12.7105 47.4448 12.669 47.5371 12.6122C47.6294 12.5554 47.6756 12.4631 47.6756 12.3352V12.3104C47.6756 12.0002 47.588 11.7599 47.4128 11.5895C47.24 11.419 46.9819 11.3338 46.6387 11.3338C46.2812 11.3338 45.9995 11.4131 45.7935 11.5717C45.5899 11.728 45.449 11.902 45.3709 12.0938L44.373 11.8665C44.4914 11.535 44.6642 11.2675 44.8915 11.0639C45.1212 10.858 45.3851 10.7088 45.6834 10.6165C45.9817 10.5218 46.2954 10.4744 46.6245 10.4744C46.8423 10.4744 47.0731 10.5005 47.3169 10.5526C47.5632 10.6023 47.7928 10.6946 48.0059 10.8295C48.2213 10.9645 48.3977 11.1574 48.535 11.4084C48.6723 11.657 48.7409 11.9801 48.7409 12.3778V16H47.704V15.2543H47.6614C47.5927 15.3916 47.4898 15.5265 47.3525 15.6591C47.2151 15.7917 47.0388 15.9018 46.8233 15.9893C46.6079 16.0769 46.3498 16.1207 46.0492 16.1207ZM46.28 15.2685C46.5736 15.2685 46.8245 15.2105 47.0328 15.0945C47.2435 14.9785 47.4034 14.8269 47.5123 14.6399C47.6235 14.4505 47.6792 14.2481 47.6792 14.0327V13.3295C47.6413 13.3674 47.5679 13.4029 47.459 13.4361C47.3525 13.4669 47.2305 13.4941 47.0932 13.5178C46.9559 13.5391 46.8221 13.5592 46.6919 13.5781C46.5617 13.5947 46.4528 13.6089 46.3652 13.6207C46.1593 13.6468 45.9711 13.6906 45.8006 13.7521C45.6325 13.8137 45.4976 13.9025 45.3958 14.0185C45.2963 14.1321 45.2466 14.2836 45.2466 14.473C45.2466 14.7358 45.3437 14.9347 45.5378 15.0696C45.7319 15.2022 45.9793 15.2685 46.28 15.2685ZM50.2404 16V8.72727H51.3022V11.4297H51.3661C51.4277 11.3161 51.5165 11.1847 51.6325 11.0355C51.7485 10.8864 51.9094 10.7562 52.1154 10.6449C52.3214 10.5312 52.5936 10.4744 52.9322 10.4744C53.3725 10.4744 53.7655 10.5857 54.1112 10.8082C54.4568 11.0308 54.7279 11.3516 54.9244 11.7706C55.1232 12.1896 55.2227 12.6939 55.2227 13.2834C55.2227 13.8729 55.1244 14.3783 54.9279 14.7997C54.7314 15.2187 54.4615 15.5419 54.1183 15.7692C53.775 15.9941 53.3832 16.1065 52.9428 16.1065C52.6114 16.1065 52.3403 16.0509 52.1296 15.9396C51.9213 15.8284 51.7579 15.6982 51.6396 15.549C51.5212 15.3999 51.43 15.2673 51.3661 15.1513H51.2773V16H50.2404ZM51.2809 13.2727C51.2809 13.6562 51.3365 13.9924 51.4478 14.2812C51.5591 14.5701 51.7201 14.7962 51.9308 14.9595C52.1415 15.1205 52.3995 15.201 52.7049 15.201C53.0221 15.201 53.2873 15.117 53.5004 14.9489C53.7134 14.7784 53.8744 14.5476 53.9833 14.2564C54.0946 13.9652 54.1502 13.6373 54.1502 13.2727C54.1502 12.9129 54.0958 12.5897 53.9869 12.3033C53.8803 12.0168 53.7193 11.7907 53.5039 11.625C53.2908 11.4593 53.0245 11.3764 52.7049 11.3764C52.3971 11.3764 52.1367 11.4557 51.9237 11.6143C51.7129 11.773 51.5531 11.9943 51.4442 12.2784C51.3353 12.5625 51.2809 12.8939 51.2809 13.2727ZM57.4767 8.72727V16H56.415V8.72727H57.4767ZM61.256 16.1101C60.7186 16.1101 60.2558 15.9953 59.8675 15.7656C59.4817 15.5336 59.1834 15.2081 58.9727 14.7891C58.7643 14.3677 58.6602 13.8741 58.6602 13.3082C58.6602 12.7495 58.7643 12.2571 58.9727 11.831C59.1834 11.4048 59.4769 11.0722 59.8533 10.8331C60.2321 10.594 60.6748 10.4744 61.1815 10.4744C61.4892 10.4744 61.7875 10.5253 62.0763 10.6271C62.3652 10.7289 62.6244 10.8887 62.854 11.1065C63.0837 11.3243 63.2648 11.6072 63.3974 11.9553C63.5299 12.3009 63.5962 12.7211 63.5962 13.2159V13.5923H59.2603V12.7969H62.5558C62.5558 12.5175 62.4989 12.2701 62.3853 12.0547C62.2717 11.8369 62.1119 11.6652 61.9059 11.5398C61.7023 11.4143 61.4632 11.3516 61.1886 11.3516C60.8903 11.3516 60.6299 11.425 60.4073 11.5717C60.1871 11.7161 60.0167 11.9055 59.896 12.1399C59.7776 12.3719 59.7184 12.6241 59.7184 12.8963V13.5178C59.7184 13.8823 59.7823 14.1925 59.9102 14.4482C60.0404 14.7038 60.2215 14.8991 60.4535 15.0341C60.6855 15.1667 60.9566 15.233 61.2667 15.233C61.4679 15.233 61.6514 15.2045 61.8171 15.1477C61.9828 15.0885 62.1261 15.0009 62.2468 14.8849C62.3675 14.7689 62.4599 14.6257 62.5238 14.4553L63.5288 14.6364C63.4483 14.9323 63.3039 15.1915 63.0955 15.4141C62.8896 15.6342 62.6303 15.8059 62.3178 15.929C62.0077 16.0497 61.6538 16.1101 61.256 16.1101Z" fill="#3775F1"/>
</g>
<defs>
<filter id="filter0_b_1_3419" x="-25" y="-25" width="127" height="74" filterUnits="userSpaceOnUse" color-interpolation-filters="sRGB">
<feFlood flood-opacity="0" result="BackgroundImageFix"/>
<feGaussianBlur in="BackgroundImageFix" stdDeviation="12.5"/>
<feComposite in2="SourceAlpha" operator="in" result="effect1_backgroundBlur_1_3419"/>
<feBlend mode="normal" in="SourceGraphic" in2="effect1_backgroundBlur_1_3419" result="shape"/>
</filter>
</defs>
</svg>
