<svg width="16" height="17" viewBox="0 0 16 17" fill="none" xmlns="http://www.w3.org/2000/svg">
<path d="M13.7467 6.13329C13.0467 3.05329 10.36 1.66663 8 1.66663C8 1.66663 8 1.66663 7.99334 1.66663C5.64 1.66663 2.94667 3.04663 2.24667 6.12663C1.46667 9.56663 3.57334 12.48 5.48 14.3133C6.18667 14.9933 7.09334 15.3333 8 15.3333C8.90667 15.3333 9.81334 14.9933 10.5133 14.3133C12.42 12.48 14.5267 9.57329 13.7467 6.13329ZM8 9.47329C6.84 9.47329 5.9 8.53329 5.9 7.37329C5.9 6.21329 6.84 5.27329 8 5.27329C9.16 5.27329 10.1 6.21329 10.1 7.37329C10.1 8.53329 9.16 9.47329 8 9.47329Z" fill="#8F9498"/>
</svg>
