<svg width="19" height="18" viewBox="0 0 19 18" fill="none" xmlns="http://www.w3.org/2000/svg">
<mask id="mask0_1_3819" style="mask-type:alpha" maskUnits="userSpaceOnUse" x="0" y="0" width="19" height="18">
<rect x="0.5" width="18" height="18" fill="#D9D9D9"/>
</mask>
<g mask="url(#mask0_1_3819)">
<path d="M12.6125 9.75001H4.25C4.0375 9.75001 3.85938 9.67813 3.71562 9.53438C3.57187 9.39063 3.5 9.21251 3.5 9.00001C3.5 8.78751 3.57187 8.60938 3.71562 8.46563C3.85938 8.32188 4.0375 8.25001 4.25 8.25001H12.6125L10.475 6.11251C10.325 5.96251 10.2531 5.78751 10.2594 5.58751C10.2656 5.38751 10.3375 5.21251 10.475 5.06251C10.625 4.91251 10.8031 4.83438 11.0094 4.82813C11.2156 4.82188 11.3938 4.89376 11.5438 5.04376L14.975 8.47501C15.05 8.55001 15.1031 8.63126 15.1344 8.71876C15.1656 8.80626 15.1812 8.90001 15.1812 9.00001C15.1812 9.10001 15.1656 9.19376 15.1344 9.28126C15.1031 9.36876 15.05 9.45001 14.975 9.52501L11.5438 12.9563C11.3938 13.1063 11.2156 13.1781 11.0094 13.1719C10.8031 13.1656 10.625 13.0875 10.475 12.9375C10.3375 12.7875 10.2656 12.6125 10.2594 12.4125C10.2531 12.2125 10.325 12.0375 10.475 11.8875L12.6125 9.75001Z" fill="#8F9498"/>
</g>
</svg>
