<svg width="167" height="60" viewBox="0 0 167 60" fill="none" xmlns="http://www.w3.org/2000/svg">
<rect width="167" height="60" rx="30" fill="#090B0F"/>
<rect x="0.5" y="0.5" width="166" height="59" rx="29.5" stroke="#E7E7E9" stroke-opacity="0.18"/>
<path d="M49.1548 26.6378C49.098 26.0649 48.8542 25.6198 48.4233 25.3026C47.9924 24.9853 47.4077 24.8267 46.669 24.8267C46.1671 24.8267 45.7434 24.8977 45.3977 25.0398C45.0521 25.1771 44.7869 25.3688 44.6023 25.6151C44.4223 25.8613 44.3324 26.1406 44.3324 26.4531C44.3229 26.7135 44.3774 26.9408 44.4957 27.1349C44.6188 27.3291 44.7869 27.4972 45 27.6392C45.2131 27.7765 45.4593 27.8973 45.7386 28.0014C46.018 28.1009 46.3163 28.1861 46.6335 28.2571L47.9403 28.5696C48.5748 28.7116 49.1572 28.901 49.6875 29.1378C50.2178 29.3745 50.6771 29.6657 51.0653 30.0114C51.4536 30.357 51.7543 30.7642 51.9673 31.233C52.1851 31.7017 52.2964 32.2391 52.3011 32.8452C52.2964 33.7353 52.0691 34.5071 51.6193 35.1605C51.1742 35.8092 50.5303 36.3134 49.6875 36.6733C48.8494 37.0284 47.8385 37.206 46.6548 37.206C45.4806 37.206 44.4579 37.026 43.5866 36.6662C42.7202 36.3063 42.0431 35.7737 41.5554 35.0682C41.0724 34.358 40.8191 33.4796 40.7955 32.4332H43.7713C43.8045 32.9209 43.9441 33.3281 44.1903 33.6548C44.4413 33.9768 44.7751 34.2206 45.1918 34.3864C45.6132 34.5473 46.089 34.6278 46.6193 34.6278C47.1402 34.6278 47.5923 34.5521 47.9759 34.4006C48.3641 34.2491 48.6648 34.0384 48.8778 33.7685C49.0909 33.4986 49.1974 33.1884 49.1974 32.8381C49.1974 32.5114 49.1004 32.2367 48.9062 32.0142C48.7169 31.7917 48.4375 31.6023 48.0682 31.446C47.7036 31.2898 47.2562 31.1477 46.7259 31.0199L45.142 30.6222C43.9157 30.3239 42.9474 29.8575 42.2372 29.223C41.527 28.5885 41.1742 27.7339 41.179 26.6591C41.1742 25.7784 41.4086 25.009 41.8821 24.3509C42.3603 23.6927 43.0161 23.179 43.8494 22.8097C44.6828 22.4403 45.6297 22.2557 46.6903 22.2557C47.7699 22.2557 48.7121 22.4403 49.517 22.8097C50.3267 23.179 50.9564 23.6927 51.4062 24.3509C51.8561 25.009 52.0881 25.7713 52.1023 26.6378H49.1548ZM59.2844 37.2131C58.1623 37.2131 57.1964 36.9858 56.3867 36.5312C55.5818 36.072 54.9615 35.4233 54.5259 34.5852C54.0903 33.7424 53.8725 32.7457 53.8725 31.5952C53.8725 30.473 54.0903 29.4882 54.5259 28.6406C54.9615 27.7931 55.5747 27.1326 56.3654 26.6591C57.1609 26.1856 58.0936 25.9489 59.1637 25.9489C59.8834 25.9489 60.5534 26.0649 61.1737 26.2969C61.7987 26.5241 62.3432 26.8674 62.8072 27.3267C63.2759 27.786 63.6405 28.3636 63.9009 29.0597C64.1613 29.7509 64.2915 30.5606 64.2915 31.4886V32.3196H55.0799V30.4446H61.4435C61.4435 30.009 61.3488 29.6231 61.1594 29.2869C60.9701 28.9508 60.7073 28.688 60.3711 28.4986C60.0397 28.3045 59.6538 28.2074 59.2134 28.2074C58.7541 28.2074 58.3469 28.3139 57.9918 28.527C57.6415 28.7353 57.3668 29.017 57.168 29.3722C56.9691 29.7225 56.8673 30.1132 56.8626 30.544V32.3267C56.8626 32.8665 56.962 33.3329 57.1609 33.7259C57.3645 34.1188 57.6509 34.4219 58.0202 34.6349C58.3896 34.848 58.8275 34.9545 59.3342 34.9545C59.6703 34.9545 59.9781 34.9072 60.2575 34.8125C60.5368 34.7178 60.7759 34.5758 60.9748 34.3864C61.1737 34.197 61.3252 33.965 61.4293 33.6903L64.2276 33.875C64.0856 34.5473 63.7944 35.1345 63.354 35.6364C62.9184 36.1335 62.355 36.5218 61.6637 36.8011C60.9772 37.0758 60.1841 37.2131 59.2844 37.2131ZM71.2376 37.2131C70.1154 37.2131 69.1495 36.9858 68.3398 36.5312C67.5349 36.072 66.9147 35.4233 66.479 34.5852C66.0434 33.7424 65.8256 32.7457 65.8256 31.5952C65.8256 30.473 66.0434 29.4882 66.479 28.6406C66.9147 27.7931 67.5278 27.1326 68.3185 26.6591C69.114 26.1856 70.0468 25.9489 71.1168 25.9489C71.8365 25.9489 72.5065 26.0649 73.1268 26.2969C73.7518 26.5241 74.2963 26.8674 74.7603 27.3267C75.229 27.786 75.5936 28.3636 75.854 29.0597C76.1145 29.7509 76.2447 30.5606 76.2447 31.4886V32.3196H67.033V30.4446H73.3967C73.3967 30.009 73.302 29.6231 73.1126 29.2869C72.9232 28.9508 72.6604 28.688 72.3242 28.4986C71.9928 28.3045 71.6069 28.2074 71.1665 28.2074C70.7073 28.2074 70.3001 28.3139 69.945 28.527C69.5946 28.7353 69.32 29.017 69.1211 29.3722C68.9222 29.7225 68.8204 30.1132 68.8157 30.544V32.3267C68.8157 32.8665 68.9151 33.3329 69.114 33.7259C69.3176 34.1188 69.604 34.4219 69.9734 34.6349C70.3427 34.848 70.7807 34.9545 71.2873 34.9545C71.6235 34.9545 71.9312 34.9072 72.2106 34.8125C72.4899 34.7178 72.729 34.5758 72.9279 34.3864C73.1268 34.197 73.2783 33.965 73.3825 33.6903L76.1808 33.875C76.0387 34.5473 75.7475 35.1345 75.3072 35.6364C74.8716 36.1335 74.3081 36.5218 73.6168 36.8011C72.9303 37.0758 72.1372 37.2131 71.2376 37.2131ZM85.9588 37.206C85.2628 37.206 84.6425 37.0852 84.098 36.8438C83.5535 36.5975 83.1226 36.2353 82.8054 35.7571C82.4929 35.2741 82.3366 34.6728 82.3366 33.9531C82.3366 33.3471 82.4479 32.8381 82.6705 32.4261C82.893 32.0142 83.196 31.6828 83.5795 31.4318C83.9631 31.1809 84.3987 30.9915 84.8864 30.8636C85.3788 30.7358 85.8949 30.6458 86.4347 30.5938C87.0691 30.5275 87.5805 30.4659 87.9688 30.4091C88.357 30.3475 88.6387 30.2576 88.8139 30.1392C88.9891 30.0208 89.0767 29.8456 89.0767 29.6136V29.571C89.0767 29.1212 88.9347 28.7732 88.6506 28.527C88.3712 28.2808 87.9735 28.1577 87.4574 28.1577C86.9129 28.1577 86.4796 28.2784 86.1577 28.5199C85.8357 28.7566 85.6226 29.0549 85.5185 29.4148L82.7202 29.1875C82.8622 28.5246 83.1416 27.9517 83.5582 27.4688C83.9749 26.9811 84.5123 26.607 85.1705 26.3466C85.8333 26.0814 86.6004 25.9489 87.4716 25.9489C88.0777 25.9489 88.6577 26.0199 89.2116 26.1619C89.7704 26.304 90.2652 26.5241 90.696 26.8224C91.1316 27.1207 91.4749 27.5043 91.7259 27.973C91.9768 28.437 92.1023 28.9934 92.1023 29.642V37H89.233V35.4872H89.1477C88.9725 35.8281 88.7382 36.1288 88.4446 36.3892C88.151 36.6449 87.7983 36.8461 87.3864 36.9929C86.9744 37.1349 86.4986 37.206 85.9588 37.206ZM86.8253 35.1179C87.2704 35.1179 87.6634 35.0303 88.0043 34.8551C88.3452 34.6752 88.6127 34.4337 88.8068 34.1307C89.0009 33.8277 89.098 33.4844 89.098 33.1009V31.9432C89.0033 32.0047 88.8731 32.0616 88.7074 32.1136C88.5464 32.161 88.3641 32.206 88.1605 32.2486C87.9569 32.2865 87.7533 32.322 87.5497 32.3551C87.3461 32.3835 87.1615 32.4096 86.9957 32.4332C86.6406 32.4853 86.3305 32.5682 86.0653 32.6818C85.8002 32.7955 85.5942 32.9493 85.4474 33.1435C85.3007 33.3329 85.2273 33.5696 85.2273 33.8537C85.2273 34.2656 85.3764 34.5805 85.6747 34.7983C85.9777 35.0114 86.3613 35.1179 86.8253 35.1179ZM97.4751 22.4545V37H94.4496V22.4545H97.4751ZM102.924 22.4545V37H99.8988V22.4545H102.924Z" fill="white"/>
<mask id="mask0_1_3779" style="mask-type:alpha" maskUnits="userSpaceOnUse" x="117" y="21" width="18" height="18">
<rect x="117" y="21" width="18" height="18" fill="#D9D9D9"/>
</mask>
<g mask="url(#mask0_1_3779)">
<path d="M129.113 30.75H120.75C120.538 30.75 120.359 30.6781 120.216 30.5344C120.072 30.3906 120 30.2125 120 30C120 29.7875 120.072 29.6094 120.216 29.4656C120.359 29.3219 120.538 29.25 120.75 29.25H129.113L126.975 27.1125C126.825 26.9625 126.753 26.7875 126.759 26.5875C126.766 26.3875 126.838 26.2125 126.975 26.0625C127.125 25.9125 127.303 25.8344 127.509 25.8281C127.716 25.8219 127.894 25.8938 128.044 26.0438L131.475 29.475C131.55 29.55 131.603 29.6313 131.634 29.7188C131.666 29.8063 131.681 29.9 131.681 30C131.681 30.1 131.666 30.1938 131.634 30.2813C131.603 30.3688 131.55 30.45 131.475 30.525L128.044 33.9563C127.894 34.1063 127.716 34.1781 127.509 34.1719C127.303 34.1656 127.125 34.0875 126.975 33.9375C126.838 33.7875 126.766 33.6125 126.759 33.4125C126.753 33.2125 126.825 33.0375 126.975 32.8875L129.113 30.75Z" fill="#9A9EA2"/>
</g>
</svg>
