<svg width="406" height="58" viewBox="0 0 406 58" fill="none" xmlns="http://www.w3.org/2000/svg">
<path d="M3 55C36.6186 50.9659 69.1238 38.1332 102.158 29.6341C114.993 26.3318 127.351 21.6055 140.35 19.4878C144.12 18.8736 149.478 17.0633 153.217 18.7832C156.362 20.2296 148.411 28.8309 147.703 29.7046C141.469 37.3922 134.947 44.6111 128.606 52.1111C127.758 53.1145 124.262 55.399 127.432 54.7886C141.278 52.1225 154.85 46.8132 168.637 43.5854C195.187 37.3694 222.011 33.6543 248.698 28.7886C285.088 22.1541 321.411 14.9672 357.863 8.98916C372.906 6.52219 387.91 4.68268 403 3" stroke="#3775F1" stroke-width="5" stroke-linecap="round"/>
</svg>
