<svg width="44" height="44" viewBox="0 0 44 44" fill="none" xmlns="http://www.w3.org/2000/svg">
<g clip-path="url(#clip0_1_89)">
<rect width="44" height="44" rx="12" fill="url(#paint0_linear_1_89)"/>
<path d="M22.312 34.288C20.44 34.288 18.7 33.976 17.092 33.352C15.508 32.728 14.2 31.756 13.168 30.436C12.16 29.116 11.548 27.436 11.332 25.396H17.884C18.052 26.068 18.364 26.62 18.82 27.052C19.276 27.46 19.84 27.76 20.512 27.952C21.208 28.144 21.952 28.24 22.744 28.24C23.224 28.24 23.716 28.192 24.22 28.096C24.724 28 25.144 27.82 25.48 27.556C25.84 27.292 26.02 26.908 26.02 26.404C26.02 26.044 25.912 25.756 25.696 25.54C25.504 25.3 25.216 25.108 24.832 24.964C24.472 24.796 24.016 24.652 23.464 24.532C23.248 24.484 23.02 24.436 22.78 24.388C22.564 24.34 22.348 24.292 22.132 24.244C21.916 24.196 21.688 24.148 21.448 24.1C20.224 23.836 19.048 23.536 17.92 23.2C16.792 22.84 15.796 22.372 14.932 21.796C14.068 21.22 13.384 20.452 12.88 19.492C12.376 18.532 12.124 17.32 12.124 15.856C12.124 14.512 12.364 13.384 12.844 12.472C13.324 11.536 13.96 10.792 14.752 10.24C15.544 9.664 16.408 9.232 17.344 8.944C18.28 8.656 19.204 8.464 20.116 8.368C21.028 8.248 21.844 8.188 22.564 8.188C24.34 8.188 25.9 8.524 27.244 9.196C28.588 9.844 29.668 10.804 30.484 12.076C31.324 13.348 31.828 14.884 31.996 16.684H25.696C25.624 16.156 25.408 15.712 25.048 15.352C24.688 14.968 24.22 14.68 23.644 14.488C23.092 14.272 22.444 14.164 21.7 14.164C21.268 14.164 20.86 14.2 20.476 14.272C20.092 14.344 19.756 14.452 19.468 14.596C19.204 14.74 18.988 14.92 18.82 15.136C18.652 15.352 18.568 15.604 18.568 15.892C18.568 16.276 18.712 16.6 19 16.864C19.312 17.128 19.756 17.356 20.332 17.548C20.932 17.74 21.664 17.944 22.528 18.16C22.936 18.256 23.332 18.352 23.716 18.448C24.1 18.52 24.484 18.604 24.868 18.7C25.924 18.94 26.908 19.216 27.82 19.528C28.756 19.84 29.572 20.248 30.268 20.752C30.988 21.256 31.552 21.94 31.96 22.804C32.368 23.644 32.572 24.724 32.572 26.044C32.572 27.556 32.284 28.84 31.708 29.896C31.132 30.928 30.352 31.768 29.368 32.416C28.384 33.064 27.28 33.544 26.056 33.856C24.832 34.144 23.584 34.288 22.312 34.288Z" fill="white"/>
</g>
<defs>
<linearGradient id="paint0_linear_1_89" x1="22" y1="0" x2="22" y2="44" gradientUnits="userSpaceOnUse">
<stop stop-color="#588CF3"/>
<stop offset="1" stop-color="#115BEE"/>
</linearGradient>
<clipPath id="clip0_1_89">
<rect width="44" height="44" rx="12" fill="white"/>
</clipPath>
</defs>
</svg>
