<svg width="213" height="32" viewBox="0 0 213 32" fill="none" xmlns="http://www.w3.org/2000/svg">
<g filter="url(#filter0_b_1_3636)">
<rect width="213" height="32" rx="16" fill="white" fill-opacity="0.12"/>
<path d="M22.3733 15.1601L21.4667 14.1068C21.2933 13.9068 21.1533 13.5335 21.1533 13.2668V12.1335C21.1533 11.4268 20.5733 10.8468 19.8667 10.8468H18.7333C18.4733 10.8468 18.0933 10.7068 17.8933 10.5335L16.84 9.62679C16.38 9.23345 15.6267 9.23345 15.16 9.62679L14.1133 10.5401C13.9133 10.7068 13.5333 10.8468 13.2733 10.8468H12.12C11.4133 10.8468 10.8333 11.4268 10.8333 12.1335V13.2735C10.8333 13.5335 10.6933 13.9068 10.5267 14.1068L9.62667 15.1668C9.24 15.6268 9.24 16.3735 9.62667 16.8335L10.5267 17.8935C10.6933 18.0935 10.8333 18.4668 10.8333 18.7268V19.8668C10.8333 20.5735 11.4133 21.1535 12.12 21.1535H13.2733C13.5333 21.1535 13.9133 21.2935 14.1133 21.4668L15.1667 22.3735C15.6267 22.7668 16.38 22.7668 16.8467 22.3735L17.9 21.4668C18.1 21.2935 18.4733 21.1535 18.74 21.1535H19.8733C20.58 21.1535 21.16 20.5735 21.16 19.8668V18.7335C21.16 18.4735 21.3 18.0935 21.4733 17.8935L22.38 16.8401C22.7667 16.3801 22.7667 15.6201 22.3733 15.1601ZM18.7733 14.7401L15.5533 17.9601C15.46 18.0535 15.3333 18.1068 15.2 18.1068C15.0667 18.1068 14.94 18.0535 14.8467 17.9601L13.2333 16.3468C13.04 16.1535 13.04 15.8335 13.2333 15.6401C13.4267 15.4468 13.7467 15.4468 13.94 15.6401L15.2 16.9001L18.0667 14.0335C18.26 13.8401 18.58 13.8401 18.7733 14.0335C18.9667 14.2268 18.9667 14.5468 18.7733 14.7401Z" fill="white"/>
<path d="M37.8295 13.9545C37.7784 13.5227 37.571 13.1875 37.2074 12.9489C36.8438 12.7102 36.3977 12.5909 35.8693 12.5909C35.483 12.5909 35.1449 12.6534 34.8551 12.7784C34.5682 12.9034 34.3438 13.0753 34.1818 13.294C34.0227 13.5128 33.9432 13.7614 33.9432 14.0398C33.9432 14.2727 33.9986 14.473 34.1094 14.6406C34.223 14.8054 34.3679 14.9432 34.544 15.054C34.7202 15.1619 34.9048 15.2514 35.098 15.3224C35.2912 15.3906 35.4688 15.446 35.6307 15.4886L36.517 15.7273C36.7443 15.7869 36.9972 15.8693 37.2756 15.9744C37.5568 16.0795 37.8253 16.223 38.081 16.4048C38.3395 16.5838 38.5526 16.8139 38.7202 17.0952C38.8878 17.3764 38.9716 17.7216 38.9716 18.1307C38.9716 18.6023 38.848 19.0284 38.6009 19.4091C38.3565 19.7898 37.9986 20.0923 37.527 20.3168C37.0582 20.5412 36.4886 20.6534 35.8182 20.6534C35.1932 20.6534 34.652 20.5526 34.1946 20.3509C33.7401 20.1491 33.3821 19.8679 33.1207 19.5071C32.8622 19.1463 32.7159 18.7273 32.6818 18.25H33.7727C33.8011 18.5795 33.9119 18.8523 34.1051 19.0682C34.3011 19.2812 34.5483 19.4403 34.8466 19.5455C35.1477 19.6477 35.4716 19.6989 35.8182 19.6989C36.2216 19.6989 36.5838 19.6335 36.9048 19.5028C37.2259 19.3693 37.4801 19.1847 37.6676 18.9489C37.8551 18.7102 37.9489 18.4318 37.9489 18.1136C37.9489 17.8239 37.8679 17.5881 37.706 17.4062C37.544 17.2244 37.331 17.0767 37.0668 16.9631C36.8026 16.8494 36.517 16.75 36.2102 16.6648L35.1364 16.358C34.4545 16.1619 33.9148 15.8821 33.517 15.5185C33.1193 15.1548 32.9205 14.679 32.9205 14.0909C32.9205 13.6023 33.0526 13.1761 33.3168 12.8125C33.5838 12.446 33.9418 12.1619 34.3906 11.9602C34.8423 11.7557 35.3466 11.6534 35.9034 11.6534C36.4659 11.6534 36.9659 11.7543 37.4034 11.956C37.8409 12.1548 38.1875 12.4276 38.4432 12.7741C38.7017 13.1207 38.8381 13.5142 38.8523 13.9545H37.8295ZM40.5728 20.5V13.9545H41.5785V20.5H40.5728ZM41.0842 12.8636C40.8881 12.8636 40.7191 12.7969 40.5771 12.6634C40.4379 12.5298 40.3683 12.3693 40.3683 12.1818C40.3683 11.9943 40.4379 11.8338 40.5771 11.7003C40.7191 11.5668 40.8881 11.5 41.0842 11.5C41.2802 11.5 41.4478 11.5668 41.587 11.7003C41.729 11.8338 41.8001 11.9943 41.8001 12.1818C41.8001 12.3693 41.729 12.5298 41.587 12.6634C41.4478 12.7969 41.2802 12.8636 41.0842 12.8636ZM46.267 13.9545V14.8068H42.875V13.9545H46.267ZM43.8636 12.3864H44.8693V18.625C44.8693 18.9091 44.9105 19.1222 44.9929 19.2642C45.0781 19.4034 45.1861 19.4972 45.3168 19.5455C45.4503 19.5909 45.5909 19.6136 45.7386 19.6136C45.8494 19.6136 45.9403 19.608 46.0114 19.5966C46.0824 19.5824 46.1392 19.571 46.1818 19.5625L46.3864 20.4659C46.3182 20.4915 46.223 20.517 46.1009 20.5426C45.9787 20.571 45.8239 20.5852 45.6364 20.5852C45.3523 20.5852 45.0739 20.5241 44.8011 20.402C44.5313 20.2798 44.3068 20.0938 44.1278 19.8438C43.9517 19.5938 43.8636 19.2784 43.8636 18.8977V12.3864ZM51.9048 17.8239V13.9545H52.9105V20.5H51.9048V19.392H51.8366C51.6832 19.7244 51.4446 20.0071 51.1207 20.2401C50.7969 20.4702 50.3878 20.5852 49.8935 20.5852C49.4844 20.5852 49.1207 20.4957 48.8026 20.3168C48.4844 20.1349 48.2344 19.8622 48.0526 19.4986C47.8707 19.1321 47.7798 18.6705 47.7798 18.1136V13.9545H48.7855V18.0455C48.7855 18.5227 48.919 18.9034 49.1861 19.1875C49.456 19.4716 49.7997 19.6136 50.2173 19.6136C50.4673 19.6136 50.7216 19.5497 50.9801 19.4219C51.2415 19.294 51.4602 19.098 51.6364 18.8338C51.8153 18.5696 51.9048 18.233 51.9048 17.8239ZM59.3888 15.4205L58.4854 15.6761C58.4286 15.5256 58.3448 15.3793 58.234 15.2372C58.1261 15.0923 57.9783 14.973 57.7908 14.8793C57.6033 14.7855 57.3633 14.7386 57.0707 14.7386C56.6701 14.7386 56.3363 14.831 56.0692 15.0156C55.805 15.1974 55.6729 15.429 55.6729 15.7102C55.6729 15.9602 55.7638 16.1577 55.9457 16.3026C56.1275 16.4474 56.4116 16.5682 56.7979 16.6648L57.7695 16.9034C58.3548 17.0455 58.7908 17.2628 59.0778 17.5554C59.3647 17.8452 59.5082 18.2187 59.5082 18.6761C59.5082 19.0511 59.4002 19.3864 59.1843 19.6818C58.9712 19.9773 58.6729 20.2102 58.2894 20.3807C57.9059 20.5511 57.4599 20.6364 56.9513 20.6364C56.2837 20.6364 55.7312 20.4915 55.2937 20.2017C54.8562 19.9119 54.5792 19.4886 54.4627 18.9318L55.4173 18.6932C55.5082 19.0455 55.68 19.3097 55.9329 19.4858C56.1886 19.6619 56.5224 19.75 56.9343 19.75C57.4031 19.75 57.7752 19.6506 58.0508 19.4517C58.3292 19.25 58.4684 19.0085 58.4684 18.7273C58.4684 18.5 58.3888 18.3097 58.2298 18.1562C58.0707 18 57.8263 17.8835 57.4968 17.8068L56.4059 17.5511C55.8065 17.4091 55.3661 17.1889 55.0849 16.8906C54.8065 16.5895 54.6673 16.2131 54.6673 15.7614C54.6673 15.392 54.771 15.0653 54.9783 14.7812C55.1886 14.4972 55.4741 14.2741 55.8349 14.1122C56.1985 13.9503 56.6104 13.8693 57.0707 13.8693C57.7184 13.8693 58.2269 14.0114 58.5962 14.2955C58.9684 14.5795 59.2326 14.9545 59.3888 15.4205ZM64.397 13.9545H65.4027V20.9773C65.4027 21.3807 65.3331 21.7301 65.1939 22.0256C65.0575 22.321 64.8501 22.5497 64.5717 22.7116C64.2962 22.8736 63.9482 22.9545 63.5277 22.9545C63.4936 22.9545 63.4595 22.9545 63.4254 22.9545C63.3913 22.9545 63.3572 22.9545 63.3232 22.9545V22.017C63.3572 22.017 63.3885 22.017 63.4169 22.017C63.4453 22.017 63.4766 22.017 63.5107 22.017C63.8175 22.017 64.0419 21.9261 64.1839 21.7443C64.326 21.5653 64.397 21.3097 64.397 20.9773V13.9545ZM64.8913 12.8636C64.6953 12.8636 64.5263 12.7969 64.3842 12.6634C64.245 12.5298 64.1754 12.3693 64.1754 12.1818C64.1754 11.9943 64.245 11.8338 64.3842 11.7003C64.5263 11.5668 64.6953 11.5 64.8913 11.5C65.0874 11.5 65.255 11.5668 65.3942 11.7003C65.5362 11.8338 65.6072 11.9943 65.6072 12.1818C65.6072 12.3693 65.5362 12.5298 65.3942 12.6634C65.255 12.7969 65.0874 12.8636 64.8913 12.8636ZM71.3697 17.8239V13.9545H72.3754V20.5H71.3697V19.392H71.3015C71.1481 19.7244 70.9094 20.0071 70.5856 20.2401C70.2617 20.4702 69.8526 20.5852 69.3583 20.5852C68.9492 20.5852 68.5856 20.4957 68.2674 20.3168C67.9492 20.1349 67.6992 19.8622 67.5174 19.4986C67.3356 19.1321 67.2447 18.6705 67.2447 18.1136V13.9545H68.2504V18.0455C68.2504 18.5227 68.3839 18.9034 68.6509 19.1875C68.9208 19.4716 69.2646 19.6136 69.6822 19.6136C69.9322 19.6136 70.1864 19.5497 70.445 19.4219C70.7063 19.294 70.9251 19.098 71.1012 18.8338C71.2802 18.5696 71.3697 18.233 71.3697 17.8239ZM76.1435 20.6534C75.7287 20.6534 75.3523 20.5753 75.0142 20.419C74.6761 20.2599 74.4077 20.0312 74.2088 19.733C74.0099 19.4318 73.9105 19.0682 73.9105 18.642C73.9105 18.267 73.9844 17.9631 74.1321 17.7301C74.2798 17.4943 74.4773 17.3097 74.7244 17.1761C74.9716 17.0426 75.2443 16.9432 75.5426 16.8778C75.8438 16.8097 76.1463 16.7557 76.4503 16.7159C76.848 16.6648 77.1705 16.6264 77.4176 16.6009C77.6676 16.5724 77.8494 16.5256 77.9631 16.4602C78.0795 16.3949 78.1378 16.2812 78.1378 16.1193V16.0852C78.1378 15.6648 78.0227 15.3381 77.7926 15.1051C77.5653 14.8722 77.2202 14.7557 76.7571 14.7557C76.277 14.7557 75.9006 14.8608 75.6278 15.071C75.3551 15.2812 75.1634 15.5057 75.0526 15.7443L74.098 15.4034C74.2685 15.0057 74.4957 14.696 74.7798 14.4744C75.0668 14.25 75.3793 14.0937 75.7173 14.0057C76.0582 13.9148 76.3935 13.8693 76.723 13.8693C76.9332 13.8693 77.1747 13.8949 77.4474 13.946C77.723 13.9943 77.9886 14.0952 78.2443 14.2486C78.5028 14.402 78.7173 14.6335 78.8878 14.9432C79.0582 15.2528 79.1435 15.6676 79.1435 16.1875V20.5H78.1378V19.6136H78.0866C78.0185 19.7557 77.9048 19.9077 77.7457 20.0696C77.5866 20.2315 77.375 20.3693 77.1108 20.483C76.8466 20.5966 76.5241 20.6534 76.1435 20.6534ZM76.2969 19.75C76.6946 19.75 77.0298 19.6719 77.3026 19.5156C77.5781 19.3594 77.7855 19.1577 77.9247 18.9105C78.0668 18.6634 78.1378 18.4034 78.1378 18.1307V17.2102C78.0952 17.2614 78.0014 17.3082 77.8565 17.3509C77.7145 17.3906 77.5497 17.4261 77.3622 17.4574C77.1776 17.4858 76.9972 17.5114 76.821 17.5341C76.6477 17.554 76.5071 17.571 76.3991 17.5852C76.1378 17.6193 75.8935 17.6747 75.6662 17.7514C75.4418 17.8253 75.2599 17.9375 75.1207 18.0881C74.9844 18.2358 74.9162 18.4375 74.9162 18.6932C74.9162 19.0426 75.0455 19.3068 75.304 19.4858C75.5653 19.6619 75.8963 19.75 76.2969 19.75ZM81.9847 11.7727V20.5H80.979V11.7727H81.9847ZM87.3381 20.5V11.7727H88.3438V14.9943H88.429C88.5028 14.8807 88.6051 14.7358 88.7358 14.5597C88.8693 14.3807 89.0597 14.2216 89.3068 14.0824C89.5568 13.9403 89.8949 13.8693 90.321 13.8693C90.8722 13.8693 91.358 14.0071 91.7784 14.2827C92.1989 14.5582 92.527 14.9489 92.7628 15.4545C92.9986 15.9602 93.1165 16.5568 93.1165 17.2443C93.1165 17.9375 92.9986 18.5384 92.7628 19.0469C92.527 19.5526 92.2003 19.9446 91.7827 20.223C91.3651 20.4986 90.8835 20.6364 90.3381 20.6364C89.9176 20.6364 89.581 20.5668 89.3281 20.4276C89.0753 20.2855 88.8807 20.125 88.7443 19.946C88.608 19.7642 88.5028 19.6136 88.429 19.4943H88.3097V20.5H87.3381ZM88.3267 17.2273C88.3267 17.7216 88.3991 18.1577 88.544 18.5355C88.6889 18.9105 88.9006 19.2045 89.179 19.4176C89.4574 19.6278 89.7983 19.733 90.2017 19.733C90.6222 19.733 90.973 19.6222 91.2543 19.4006C91.5384 19.1761 91.7514 18.875 91.8935 18.4972C92.0384 18.1165 92.1108 17.6932 92.1108 17.2273C92.1108 16.767 92.0398 16.3523 91.8977 15.983C91.7585 15.6108 91.5469 15.3168 91.2628 15.1009C90.9815 14.8821 90.6278 14.7727 90.2017 14.7727C89.7926 14.7727 89.4489 14.8764 89.1705 15.0838C88.892 15.2884 88.6818 15.5753 88.5398 15.9446C88.3977 16.3111 88.3267 16.7386 88.3267 17.2273ZM97.3991 20.6364C96.7685 20.6364 96.2244 20.4972 95.767 20.2188C95.3125 19.9375 94.9616 19.5455 94.7145 19.0426C94.4702 18.5369 94.348 17.9489 94.348 17.2784C94.348 16.608 94.4702 16.017 94.7145 15.5057C94.9616 14.9915 95.3054 14.5909 95.7457 14.304C96.1889 14.0142 96.706 13.8693 97.2969 13.8693C97.6378 13.8693 97.9744 13.9261 98.3068 14.0398C98.6392 14.1534 98.9418 14.3381 99.2145 14.5938C99.4872 14.8466 99.7045 15.1818 99.8665 15.5994C100.028 16.017 100.109 16.5312 100.109 17.142V17.5682H95.0639V16.6989H99.0866C99.0866 16.3295 99.0128 16 98.8651 15.7102C98.7202 15.4205 98.5128 15.1918 98.2429 15.0241C97.9759 14.8565 97.6605 14.7727 97.2969 14.7727C96.8963 14.7727 96.5497 14.8722 96.2571 15.071C95.9673 15.267 95.7443 15.5227 95.5881 15.8381C95.4318 16.1534 95.3537 16.4915 95.3537 16.8523V17.4318C95.3537 17.9261 95.4389 18.3452 95.6094 18.6889C95.7827 19.0298 96.0227 19.2898 96.3295 19.4688C96.6364 19.6449 96.9929 19.733 97.3991 19.733C97.6634 19.733 97.902 19.696 98.1151 19.6222C98.331 19.5455 98.517 19.4318 98.6733 19.2812C98.8295 19.1278 98.9503 18.9375 99.0355 18.7102L100.007 18.983C99.9048 19.3125 99.733 19.6023 99.4915 19.8523C99.25 20.0994 98.9517 20.2926 98.5966 20.4318C98.2415 20.5682 97.8423 20.6364 97.3991 20.6364ZM102.645 11.7727V20.5H101.639V11.7727H102.645ZM104.487 20.5V13.9545H105.493V20.5H104.487ZM104.998 12.8636C104.802 12.8636 104.633 12.7969 104.491 12.6634C104.352 12.5298 104.282 12.3693 104.282 12.1818C104.282 11.9943 104.352 11.8338 104.491 11.7003C104.633 11.5668 104.802 11.5 104.998 11.5C105.194 11.5 105.362 11.5668 105.501 11.7003C105.643 11.8338 105.714 11.9943 105.714 12.1818C105.714 12.3693 105.643 12.5298 105.501 12.6634C105.362 12.7969 105.194 12.8636 104.998 12.8636ZM110.71 20.5V13.9545H111.681V14.9773H111.766C111.903 14.6278 112.123 14.3565 112.427 14.1634C112.731 13.9673 113.096 13.8693 113.522 13.8693C113.954 13.8693 114.313 13.9673 114.6 14.1634C114.89 14.3565 115.116 14.6278 115.278 14.9773H115.346C115.513 14.6392 115.765 14.3707 116.1 14.1719C116.435 13.9702 116.837 13.8693 117.306 13.8693C117.891 13.8693 118.37 14.0526 118.742 14.419C119.114 14.7827 119.3 15.3494 119.3 16.1193V20.5H118.295V16.1193C118.295 15.6364 118.163 15.2912 117.898 15.0838C117.634 14.8764 117.323 14.7727 116.965 14.7727C116.505 14.7727 116.148 14.9119 115.896 15.1903C115.643 15.4659 115.516 15.8153 115.516 16.2386V20.5H114.494V16.017C114.494 15.6449 114.373 15.3452 114.131 15.1179C113.89 14.8878 113.579 14.7727 113.198 14.7727C112.937 14.7727 112.692 14.8423 112.465 14.9815C112.241 15.1207 112.059 15.3139 111.92 15.5611C111.783 15.8054 111.715 16.0881 111.715 16.4091V20.5H110.71ZM123.798 20.6364C123.207 20.6364 122.689 20.4957 122.243 20.2145C121.8 19.9332 121.453 19.5398 121.203 19.0341C120.956 18.5284 120.832 17.9375 120.832 17.2614C120.832 16.5795 120.956 15.9844 121.203 15.4759C121.453 14.9673 121.8 14.5724 122.243 14.2912C122.689 14.0099 123.207 13.8693 123.798 13.8693C124.389 13.8693 124.906 14.0099 125.349 14.2912C125.795 14.5724 126.142 14.9673 126.389 15.4759C126.639 15.9844 126.764 16.5795 126.764 17.2614C126.764 17.9375 126.639 18.5284 126.389 19.0341C126.142 19.5398 125.795 19.9332 125.349 20.2145C124.906 20.4957 124.389 20.6364 123.798 20.6364ZM123.798 19.733C124.247 19.733 124.616 19.6179 124.906 19.3878C125.196 19.1577 125.411 18.8551 125.55 18.4801C125.689 18.1051 125.759 17.6989 125.759 17.2614C125.759 16.8239 125.689 16.4162 125.55 16.0384C125.411 15.6605 125.196 15.3551 124.906 15.1222C124.616 14.8892 124.247 14.7727 123.798 14.7727C123.349 14.7727 122.98 14.8892 122.69 15.1222C122.401 15.3551 122.186 15.6605 122.047 16.0384C121.908 16.4162 121.838 16.8239 121.838 17.2614C121.838 17.6989 121.908 18.1051 122.047 18.4801C122.186 18.8551 122.401 19.1577 122.69 19.3878C122.98 19.6179 123.349 19.733 123.798 19.733ZM128.436 20.5V11.7727H129.441V14.9943H129.527C129.6 14.8807 129.703 14.7358 129.833 14.5597C129.967 14.3807 130.157 14.2216 130.404 14.0824C130.654 13.9403 130.993 13.8693 131.419 13.8693C131.97 13.8693 132.456 14.0071 132.876 14.2827C133.297 14.5582 133.625 14.9489 133.86 15.4545C134.096 15.9602 134.214 16.5568 134.214 17.2443C134.214 17.9375 134.096 18.5384 133.86 19.0469C133.625 19.5526 133.298 19.9446 132.88 20.223C132.463 20.4986 131.981 20.6364 131.436 20.6364C131.015 20.6364 130.679 20.5668 130.426 20.4276C130.173 20.2855 129.978 20.125 129.842 19.946C129.706 19.7642 129.6 19.6136 129.527 19.4943H129.407V20.5H128.436ZM129.424 17.2273C129.424 17.7216 129.497 18.1577 129.642 18.5355C129.787 18.9105 129.998 19.2045 130.277 19.4176C130.555 19.6278 130.896 19.733 131.299 19.733C131.72 19.733 132.071 19.6222 132.352 19.4006C132.636 19.1761 132.849 18.875 132.991 18.4972C133.136 18.1165 133.208 17.6932 133.208 17.2273C133.208 16.767 133.137 16.3523 132.995 15.983C132.856 15.6108 132.645 15.3168 132.36 15.1009C132.079 14.8821 131.725 14.7727 131.299 14.7727C130.89 14.7727 130.547 14.8764 130.268 15.0838C129.99 15.2884 129.779 15.5753 129.637 15.9446C129.495 16.3111 129.424 16.7386 129.424 17.2273ZM135.752 20.5V13.9545H136.758V20.5H135.752ZM136.264 12.8636C136.068 12.8636 135.899 12.7969 135.757 12.6634C135.618 12.5298 135.548 12.3693 135.548 12.1818C135.548 11.9943 135.618 11.8338 135.757 11.7003C135.899 11.5668 136.068 11.5 136.264 11.5C136.46 11.5 136.627 11.5668 136.767 11.7003C136.909 11.8338 136.98 11.9943 136.98 12.1818C136.98 12.3693 136.909 12.5298 136.767 12.6634C136.627 12.7969 136.46 12.8636 136.264 12.8636ZM139.606 11.7727V20.5H138.6V11.7727H139.606ZM147.669 13.9545V14.8068H144.277V13.9545H147.669ZM145.266 12.3864H146.272V18.625C146.272 18.9091 146.313 19.1222 146.395 19.2642C146.48 19.4034 146.588 19.4972 146.719 19.5455C146.853 19.5909 146.993 19.6136 147.141 19.6136C147.252 19.6136 147.343 19.608 147.414 19.5966C147.485 19.5824 147.542 19.571 147.584 19.5625L147.789 20.4659C147.721 20.4915 147.625 20.517 147.503 20.5426C147.381 20.571 147.226 20.5852 147.039 20.5852C146.755 20.5852 146.476 20.5241 146.203 20.402C145.934 20.2798 145.709 20.0938 145.53 19.8438C145.354 19.5938 145.266 19.2784 145.266 18.8977V12.3864ZM151.856 20.6364C151.225 20.6364 150.681 20.4972 150.224 20.2188C149.77 19.9375 149.419 19.5455 149.172 19.0426C148.927 18.5369 148.805 17.9489 148.805 17.2784C148.805 16.608 148.927 16.017 149.172 15.5057C149.419 14.9915 149.762 14.5909 150.203 14.304C150.646 14.0142 151.163 13.8693 151.754 13.8693C152.095 13.8693 152.431 13.9261 152.764 14.0398C153.096 14.1534 153.399 14.3381 153.672 14.5938C153.944 14.8466 154.162 15.1818 154.324 15.5994C154.485 16.017 154.566 16.5312 154.566 17.142V17.5682H149.521V16.6989H153.544C153.544 16.3295 153.47 16 153.322 15.7102C153.177 15.4205 152.97 15.1918 152.7 15.0241C152.433 14.8565 152.118 14.7727 151.754 14.7727C151.353 14.7727 151.007 14.8722 150.714 15.071C150.424 15.267 150.201 15.5227 150.045 15.8381C149.889 16.1534 149.811 16.4915 149.811 16.8523V17.4318C149.811 17.9261 149.896 18.3452 150.066 18.6889C150.24 19.0298 150.48 19.2898 150.787 19.4688C151.093 19.6449 151.45 19.733 151.856 19.733C152.12 19.733 152.359 19.696 152.572 19.6222C152.788 19.5455 152.974 19.4318 153.13 19.2812C153.287 19.1278 153.407 18.9375 153.493 18.7102L154.464 18.983C154.362 19.3125 154.19 19.6023 153.949 19.8523C153.707 20.0994 153.409 20.2926 153.054 20.4318C152.699 20.5682 152.299 20.6364 151.856 20.6364ZM156.096 20.5V13.9545H157.068V14.9432H157.136C157.255 14.6193 157.471 14.3565 157.784 14.1548C158.096 13.9531 158.449 13.8523 158.841 13.8523C158.914 13.8523 159.007 13.8537 159.118 13.8565C159.228 13.8594 159.312 13.8636 159.369 13.8693V14.892C159.335 14.8835 159.257 14.8707 159.135 14.8537C159.015 14.8338 158.889 14.8239 158.755 14.8239C158.437 14.8239 158.153 14.8906 157.903 15.0241C157.656 15.1548 157.46 15.3366 157.315 15.5696C157.173 15.7997 157.102 16.0625 157.102 16.358V20.5H156.096ZM160.561 22.9545V13.9545H161.533V14.9943H161.652C161.726 14.8807 161.828 14.7358 161.959 14.5597C162.092 14.3807 162.283 14.2216 162.53 14.0824C162.78 13.9403 163.118 13.8693 163.544 13.8693C164.095 13.8693 164.581 14.0071 165.001 14.2827C165.422 14.5582 165.75 14.9489 165.986 15.4545C166.222 15.9602 166.339 16.5568 166.339 17.2443C166.339 17.9375 166.222 18.5384 165.986 19.0469C165.75 19.5526 165.423 19.9446 165.006 20.223C164.588 20.4986 164.107 20.6364 163.561 20.6364C163.141 20.6364 162.804 20.5668 162.551 20.4276C162.298 20.2855 162.104 20.125 161.967 19.946C161.831 19.7642 161.726 19.6136 161.652 19.4943H161.567V22.9545H160.561ZM161.55 17.2273C161.55 17.7216 161.622 18.1577 161.767 18.5355C161.912 18.9105 162.124 19.2045 162.402 19.4176C162.68 19.6278 163.021 19.733 163.425 19.733C163.845 19.733 164.196 19.6222 164.477 19.4006C164.761 19.1761 164.974 18.875 165.116 18.4972C165.261 18.1165 165.334 17.6932 165.334 17.2273C165.334 16.767 165.263 16.3523 165.121 15.983C164.982 15.6108 164.77 15.3168 164.486 15.1009C164.205 14.8821 163.851 14.7727 163.425 14.7727C163.016 14.7727 162.672 14.8764 162.393 15.0838C162.115 15.2884 161.905 15.5753 161.763 15.9446C161.621 16.3111 161.55 16.7386 161.55 17.2273ZM170.618 20.6364C169.987 20.6364 169.443 20.4972 168.986 20.2188C168.531 19.9375 168.18 19.5455 167.933 19.0426C167.689 18.5369 167.567 17.9489 167.567 17.2784C167.567 16.608 167.689 16.017 167.933 15.5057C168.18 14.9915 168.524 14.5909 168.964 14.304C169.408 14.0142 169.925 13.8693 170.516 13.8693C170.857 13.8693 171.193 13.9261 171.526 14.0398C171.858 14.1534 172.161 14.3381 172.433 14.5938C172.706 14.8466 172.923 15.1818 173.085 15.5994C173.247 16.017 173.328 16.5312 173.328 17.142V17.5682H168.283V16.6989H172.305C172.305 16.3295 172.232 16 172.084 15.7102C171.939 15.4205 171.732 15.1918 171.462 15.0241C171.195 14.8565 170.879 14.7727 170.516 14.7727C170.115 14.7727 169.768 14.8722 169.476 15.071C169.186 15.267 168.963 15.5227 168.807 15.8381C168.651 16.1534 168.572 16.4915 168.572 16.8523V17.4318C168.572 17.9261 168.658 18.3452 168.828 18.6889C169.001 19.0298 169.241 19.2898 169.548 19.4688C169.855 19.6449 170.212 19.733 170.618 19.733C170.882 19.733 171.121 19.696 171.334 19.6222C171.55 19.5455 171.736 19.4318 171.892 19.2812C172.048 19.1278 172.169 18.9375 172.254 18.7102L173.226 18.983C173.124 19.3125 172.952 19.6023 172.71 19.8523C172.469 20.0994 172.17 20.2926 171.815 20.4318C171.46 20.5682 171.061 20.6364 170.618 20.6364ZM174.858 20.5V13.9545H175.83V14.9432H175.898C176.017 14.6193 176.233 14.3565 176.545 14.1548C176.858 13.9531 177.21 13.8523 177.602 13.8523C177.676 13.8523 177.768 13.8537 177.879 13.8565C177.99 13.8594 178.074 13.8636 178.131 13.8693V14.892C178.097 14.8835 178.018 14.8707 177.896 14.8537C177.777 14.8338 177.651 14.8239 177.517 14.8239C177.199 14.8239 176.915 14.8906 176.665 15.0241C176.418 15.1548 176.222 15.3366 176.077 15.5696C175.935 15.7997 175.864 16.0625 175.864 16.358V20.5H174.858ZM181.783 20.6364C181.169 20.6364 180.641 20.4915 180.197 20.2017C179.754 19.9119 179.413 19.5128 179.175 19.0043C178.936 18.4957 178.817 17.9148 178.817 17.2614C178.817 16.5966 178.939 16.0099 179.183 15.5014C179.43 14.9901 179.774 14.5909 180.214 14.304C180.658 14.0142 181.175 13.8693 181.766 13.8693C182.226 13.8693 182.641 13.9545 183.01 14.125C183.379 14.2955 183.682 14.5341 183.918 14.8409C184.153 15.1477 184.3 15.5057 184.357 15.9148H183.351C183.274 15.6165 183.104 15.3523 182.839 15.1222C182.578 14.8892 182.226 14.7727 181.783 14.7727C181.391 14.7727 181.047 14.875 180.751 15.0795C180.459 15.2812 180.23 15.5668 180.065 15.9361C179.903 16.3026 179.822 16.733 179.822 17.2273C179.822 17.733 179.902 18.1733 180.061 18.5483C180.223 18.9233 180.45 19.2145 180.743 19.4219C181.038 19.6293 181.385 19.733 181.783 19.733C182.044 19.733 182.281 19.6875 182.494 19.5966C182.707 19.5057 182.888 19.375 183.036 19.2045C183.183 19.0341 183.288 18.8295 183.351 18.5909H184.357C184.3 18.9773 184.159 19.3253 183.935 19.6349C183.713 19.9418 183.419 20.1861 183.053 20.3679C182.689 20.5469 182.266 20.6364 181.783 20.6364ZM187.753 20.6534C187.338 20.6534 186.962 20.5753 186.624 20.419C186.286 20.2599 186.017 20.0312 185.818 19.733C185.619 19.4318 185.52 19.0682 185.52 18.642C185.52 18.267 185.594 17.9631 185.741 17.7301C185.889 17.4943 186.087 17.3097 186.334 17.1761C186.581 17.0426 186.854 16.9432 187.152 16.8778C187.453 16.8097 187.756 16.7557 188.06 16.7159C188.457 16.6648 188.78 16.6264 189.027 16.6009C189.277 16.5724 189.459 16.5256 189.572 16.4602C189.689 16.3949 189.747 16.2812 189.747 16.1193V16.0852C189.747 15.6648 189.632 15.3381 189.402 15.1051C189.175 14.8722 188.83 14.7557 188.366 14.7557C187.886 14.7557 187.51 14.8608 187.237 15.071C186.964 15.2812 186.773 15.5057 186.662 15.7443L185.707 15.4034C185.878 15.0057 186.105 14.696 186.389 14.4744C186.676 14.25 186.989 14.0937 187.327 14.0057C187.668 13.9148 188.003 13.8693 188.332 13.8693C188.543 13.8693 188.784 13.8949 189.057 13.946C189.332 13.9943 189.598 14.0952 189.854 14.2486C190.112 14.402 190.327 14.6335 190.497 14.9432C190.668 15.2528 190.753 15.6676 190.753 16.1875V20.5H189.747V19.6136H189.696C189.628 19.7557 189.514 19.9077 189.355 20.0696C189.196 20.2315 188.984 20.3693 188.72 20.483C188.456 20.5966 188.134 20.6534 187.753 20.6534ZM187.906 19.75C188.304 19.75 188.639 19.6719 188.912 19.5156C189.188 19.3594 189.395 19.1577 189.534 18.9105C189.676 18.6634 189.747 18.4034 189.747 18.1307V17.2102C189.705 17.2614 189.611 17.3082 189.466 17.3509C189.324 17.3906 189.159 17.4261 188.972 17.4574C188.787 17.4858 188.607 17.5114 188.43 17.5341C188.257 17.554 188.116 17.571 188.009 17.5852C187.747 17.6193 187.503 17.6747 187.276 17.7514C187.051 17.8253 186.869 17.9375 186.73 18.0881C186.594 18.2358 186.526 18.4375 186.526 18.6932C186.526 19.0426 186.655 19.3068 186.913 19.4858C187.175 19.6619 187.506 19.75 187.906 19.75ZM193.002 22.9545C192.831 22.9545 192.679 22.9403 192.546 22.9119C192.412 22.8864 192.32 22.8608 192.269 22.8352L192.525 21.9489C192.769 22.0114 192.985 22.0341 193.172 22.017C193.36 22 193.526 21.9162 193.671 21.7656C193.819 21.6179 193.953 21.3778 194.076 21.0455L194.263 20.5341L191.843 13.9545H192.934L194.74 19.1705H194.809L196.615 13.9545H197.706L194.928 21.4545C194.803 21.7926 194.648 22.0724 194.463 22.294C194.279 22.5185 194.064 22.6847 193.82 22.7926C193.578 22.9006 193.306 22.9545 193.002 22.9545ZM200.761 20.6534C200.346 20.6534 199.969 20.5753 199.631 20.419C199.293 20.2599 199.025 20.0312 198.826 19.733C198.627 19.4318 198.528 19.0682 198.528 18.642C198.528 18.267 198.602 17.9631 198.749 17.7301C198.897 17.4943 199.094 17.3097 199.342 17.1761C199.589 17.0426 199.862 16.9432 200.16 16.8778C200.461 16.8097 200.763 16.7557 201.067 16.7159C201.465 16.6648 201.788 16.6264 202.035 16.6009C202.285 16.5724 202.467 16.5256 202.58 16.4602C202.697 16.3949 202.755 16.2812 202.755 16.1193V16.0852C202.755 15.6648 202.64 15.3381 202.41 15.1051C202.183 14.8722 201.837 14.7557 201.374 14.7557C200.894 14.7557 200.518 14.8608 200.245 15.071C199.972 15.2812 199.781 15.5057 199.67 15.7443L198.715 15.4034C198.886 15.0057 199.113 14.696 199.397 14.4744C199.684 14.25 199.996 14.0937 200.335 14.0057C200.675 13.9148 201.011 13.8693 201.34 13.8693C201.55 13.8693 201.792 13.8949 202.065 13.946C202.34 13.9943 202.606 14.0952 202.862 14.2486C203.12 14.402 203.335 14.6335 203.505 14.9432C203.675 15.2528 203.761 15.6676 203.761 16.1875V20.5H202.755V19.6136H202.704C202.636 19.7557 202.522 19.9077 202.363 20.0696C202.204 20.2315 201.992 20.3693 201.728 20.483C201.464 20.5966 201.141 20.6534 200.761 20.6534ZM200.914 19.75C201.312 19.75 201.647 19.6719 201.92 19.5156C202.195 19.3594 202.403 19.1577 202.542 18.9105C202.684 18.6634 202.755 18.4034 202.755 18.1307V17.2102C202.712 17.2614 202.619 17.3082 202.474 17.3509C202.332 17.3906 202.167 17.4261 201.979 17.4574C201.795 17.4858 201.614 17.5114 201.438 17.5341C201.265 17.554 201.124 17.571 201.016 17.5852C200.755 17.6193 200.511 17.6747 200.283 17.7514C200.059 17.8253 199.877 17.9375 199.738 18.0881C199.602 18.2358 199.533 18.4375 199.533 18.6932C199.533 19.0426 199.663 19.3068 199.921 19.4858C200.183 19.6619 200.513 19.75 200.914 19.75Z" fill="white"/>
</g>
<defs>
<filter id="filter0_b_1_3636" x="-25" y="-25" width="263" height="82" filterUnits="userSpaceOnUse" color-interpolation-filters="sRGB">
<feFlood flood-opacity="0" result="BackgroundImageFix"/>
<feGaussianBlur in="BackgroundImageFix" stdDeviation="12.5"/>
<feComposite in2="SourceAlpha" operator="in" result="effect1_backgroundBlur_1_3636"/>
<feBlend mode="normal" in="SourceGraphic" in2="effect1_backgroundBlur_1_3636" result="shape"/>
</filter>
</defs>
</svg>
